# xmcd
#
# Track frame offsets:
#	150
#	6214
#	24644
#	38132
#	49587
#	60209
#	79677
#	89134
#	103102
#	114224
#	124607
#	133489
#	146709
#	158435
#	177985
#
# Disc length: 2589 seconds
#
# Revision: 5
# Processed by: cddbd v1.5.2PL0 Copyright (c) Steve Scherf et al.
# Submitted via: audiograbber 1.83.01
#
DISCID=c10a1b0f
DTITLE=Various Artist - Herzen Öffnen (Die schönsten Weihnachtsmelodien)
DYEAR=2003
DGENRE=Weihnachten
TTITLE0=F. Breck/Die westfälischen Nachtigallen  - Kling, Glöckchen, kling
TTITLE1=Stefanie Hertel and Stefan Mross - Stille Nacht
TTITLE2=Astrid Harzbecker - Weihnachten wirst du daheim sein
TTITLE3=Stefan Mross - Es ist ein Ros' entsprungen
TTITLE4=Andy Borg - Leise rieselt der Schnee
TTITLE5=Anneliese Rothenberger and Die Regensburger Domspatzen - Schlafe, mein Pr
TTITLE5=inzchen, schlaf ein
TTITLE6=Tölzer Knabenchor - Jetzt fangen wir zu singen an
TTITLE7=Ludwig Baumann - Süßer die Glocken nie klingen
TTITLE8=Marianne and Michael - Morgen, Kinder wird's was geben
TTITLE9=Henry Arland and Söhne - Fröhliche Weinacht überall
TTITLE10=Original Naabtal Duo - Oh Tannenbaum
TTITLE11=Géraldine Olivier - Rosen blühn im Schnee
TTITLE12=Heino - Kommet ihr Hirten
TTITLE13=Bianca - Ave Maria
TTITLE14=Eberhard Hertel - Das einsame Glöckchen
EXTD=
EXTT0=
EXTT1=
EXTT2=
EXTT3=
EXTT4=
EXTT5=
EXTT6=
EXTT7=
EXTT8=
EXTT9=
EXTT10=
EXTT11=
EXTT12=
EXTT13=
EXTT14=
PLAYORDER=
